<svg width="512" height="512" viewBox="0 0 512 512" fill="none" xmlns="http://www.w3.org/2000/svg">
  <defs>
    <linearGradient id="bg" x1="74" y1="48" x2="458" y2="470" gradientUnits="userSpaceOnUse">
      <stop stop-color="#0F172A"/>
      <stop offset="1" stop-color="#02040A"/>
    </linearGradient>
    <linearGradient id="fg" x1="120" y1="86" x2="400" y2="420" gradientUnits="userSpaceOnUse">
      <stop stop-color="#7DD3FC"/>
      <stop offset="0.5" stop-color="#38BDF8"/>
      <stop offset="1" stop-color="#A78BFA"/>
    </linearGradient>
  </defs>
  <rect width="512" height="512" rx="128" fill="url(#bg)"/>
  <rect x="48" y="48" width="416" height="416" rx="104" stroke="#FFFFFF" stroke-opacity="0.10" stroke-width="2"/>
  <g opacity="0.35" stroke="#7DD3FC" stroke-opacity="0.22" stroke-width="2">
    <path d="M96 154H416"/>
    <path d="M96 256H416"/>
    <path d="M96 358H416"/>
    <path d="M154 96V416"/>
    <path d="M256 96V416"/>
    <path d="M358 96V416"/>
  </g>
  <circle cx="170" cy="140" r="36" fill="#38BDF8" fill-opacity="0.16" />
  <circle cx="362" cy="356" r="48" fill="#A78BFA" fill-opacity="0.16" />
  <path d="M148 168C189 132 217 114 256 114C315 114 364 158 364 220C364 299 282 336 190 372" stroke="url(#fg)" stroke-width="26" stroke-linecap="round" stroke-linejoin="round"/>
  <path d="M164 352C214 316 255 308 302 308C336 308 360 322 382 346" stroke="url(#fg)" stroke-width="26" stroke-linecap="round" stroke-linejoin="round"/>
  <text x="120" y="274" fill="#F5F7FF" font-family="Space Grotesk, Arial, sans-serif" font-size="136" font-weight="700" letter-spacing="-8">YZ</text>
</svg>
